<svg version="1.1" id="Layer_1" xmlns="http://www.w3.org/2000/svg" xmlns:xlink="http://www.w3.org/1999/xlink" x="0px" y="0px"
	 width="55%" viewBox="0 0 512 512" enable-background="new 0 0 512 512" xml:space="preserve">
<path fill="#E47B7C" opacity="0" stroke="none" 
	d="
M513.000000,175.000000 
	C513.000000,287.972534 513.000000,400.445068 513.000000,512.958801 
	C342.402466,512.958801 171.804901,512.958801 1.103673,512.958801 
	C1.103673,342.444153 1.103673,171.888245 1.103673,1.166158 
	C171.666534,1.166158 342.333252,1.166158 513.000000,1.166158 
	C513.000000,58.861729 513.000000,116.680862 513.000000,175.000000 
M374.230988,165.500046 
	C374.230774,116.179703 374.173645,66.859177 374.325287,17.539299 
	C374.339233,12.997538 373.122559,11.662687 368.503540,11.671344 
	C294.189850,11.810616 219.875763,11.806441 145.562027,11.679000 
	C141.062668,11.671284 139.662933,12.812874 139.669571,17.473543 
	C139.803329,111.448837 139.787933,205.424377 139.698471,299.399780 
	C139.695099,302.937378 140.664337,305.098480 143.732285,307.084198 
	C180.225769,330.704498 216.652023,354.429352 252.988174,378.290863 
	C256.233093,380.421753 258.373688,380.044281 261.396149,378.062317 
	C297.469452,354.406616 333.593689,330.827820 369.824646,307.414642 
	C373.233490,305.211823 374.318817,302.865082 374.308075,298.965302 
	C374.186188,254.810486 374.230988,210.655212 374.230988,165.500046 
M336.499939,502.303802 
	C356.992889,502.303711 377.485840,502.313477 397.978790,502.301056 
	C421.470581,502.286835 444.963470,502.364685 468.453278,502.136688 
	C473.367218,502.089020 478.269897,500.881683 484.420441,500.038361 
	C482.152069,497.528778 481.208557,496.390991 480.169312,495.348663 
	C433.938507,448.980103 387.679810,402.639282 341.515045,356.205109 
	C339.038300,353.713928 337.376801,353.465515 334.394714,355.446014 
	C309.977905,371.661987 285.402710,387.639343 260.984436,403.853180 
	C258.023193,405.819458 256.003479,405.792664 253.066666,403.832001 
	C234.367828,391.348480 215.532990,379.068665 196.739639,366.726746 
	C189.814270,362.178741 182.880020,357.644165 178.046204,354.477020 
	C128.720917,403.445496 80.110397,451.704376 30.845699,500.612701 
	C35.675774,501.080536 40.389603,501.927582 45.104984,501.936340 
	C141.903198,502.116302 238.701569,502.200684 336.499939,502.303802 
M33.748375,260.728790 
	C26.704424,256.162506 19.660475,251.596237 11.762111,246.476074 
	C11.762111,249.476822 11.764359,251.275421 11.761784,253.074036 
	C11.679948,310.226196 11.557096,367.378387 11.541475,424.530548 
	C11.537105,440.525055 11.736030,456.522186 12.101316,472.512177 
	C12.183454,476.107605 13.352633,479.678192 14.009648,483.197296 
	C61.963600,435.395966 109.225807,388.284180 156.757797,340.903473 
	C116.081894,314.386719 75.220131,287.748810 33.748375,260.728790 
M502.289093,308.500031 
	C502.289093,288.158112 502.289093,267.816193 502.289093,246.393204 
	C453.010162,278.519623 404.982391,309.830353 358.083710,340.405029 
	C405.596863,387.913635 452.768616,435.080902 500.575043,482.882751 
	C501.070831,477.827301 502.002747,472.655090 502.020020,467.479828 
	C502.195709,414.820190 502.222412,362.160065 502.289093,308.500031 
M399.726685,51.712975 
	C398.620667,51.525410 397.514679,51.337841 395.769501,51.041882 
	C395.769501,60.703411 395.957855,70.005989 395.675598,79.294273 
	C395.564728,82.942787 397.048462,84.179947 400.268951,84.955658 
	C408.034973,86.826210 415.767334,88.867020 423.433868,91.110542 
	C429.567078,92.905373 432.157715,97.314125 431.340790,103.706123 
	C430.381805,111.209534 432.179596,114.428383 439.023468,117.461723 
	C445.477570,120.322311 447.681732,124.573944 445.994812,131.482254 
	C444.455139,137.787399 442.687653,144.037079 441.009155,150.308121 
	C437.350677,163.976837 433.691040,177.645233 430.018707,191.310226 
	C428.788605,195.887604 425.957703,199.631210 421.246246,199.629196 
	C417.849915,199.627731 413.307190,198.113052 411.379303,195.636124 
	C409.424347,193.124359 408.942291,188.336319 409.738586,185.005035 
	C413.568695,168.981812 418.140503,153.137070 422.169891,137.158600 
	C422.615082,135.393127 421.921051,132.523697 420.658081,131.285706 
	C415.241608,125.976379 411.648682,119.840263 409.971863,112.449783 
	C409.670776,111.122879 408.503387,109.397629 407.332062,108.974457 
	C403.798737,107.698006 400.066376,106.972534 396.115784,105.956131 
	C396.115784,167.393494 396.115784,228.265121 396.115784,289.919861 
	C398.368622,288.549164 400.049805,287.576233 401.681122,286.525848 
	C414.566833,278.229095 427.373291,269.806000 440.368286,261.684418 
	C443.872620,259.494293 445.795319,256.844635 446.850433,252.861252 
	C461.896515,196.057281 477.029053,139.275986 492.323303,82.538406 
	C493.485199,78.228012 493.030396,76.441162 488.383118,75.235832 
	C459.057800,67.629951 429.810211,59.724442 399.726685,51.712975 
M96.902824,56.336132 
	C72.958771,62.764030 49.040085,69.289604 25.045179,75.521736 
	C21.137665,76.536613 20.436367,77.949478 21.447336,81.699158 
	C36.954590,139.215439 52.311005,196.772385 67.846687,254.280930 
	C68.428612,256.435059 70.055801,258.817963 71.896027,260.039581 
	C85.767426,269.247772 99.808937,278.200012 113.816521,287.202301 
	C114.979744,287.949890 116.284355,288.477478 117.886200,289.291748 
	C117.886200,227.837311 117.886200,167.123886 117.886200,106.006409 
	C114.909470,106.751495 112.375816,107.533577 109.785217,107.998245 
	C106.209038,108.639694 104.681793,110.389320 103.295975,114.077850 
	C101.078812,119.979073 97.508171,125.540787 93.645813,130.584473 
	C91.678055,133.154053 90.935425,134.866989 91.803139,137.980469 
	C96.225418,153.848282 100.459526,169.769775 104.612389,185.710831 
	C106.346489,192.367279 103.345169,198.005844 97.541473,199.719482 
	C91.741760,201.431946 85.867310,198.163956 84.109604,191.723297 
	C78.589890,171.497726 73.191811,151.237915 67.922913,130.945587 
	C66.296883,124.683189 68.804634,120.244553 74.677765,117.736671 
	C82.167709,114.538414 83.687256,112.033371 83.046982,103.939636 
	C82.455429,96.461586 84.927025,92.843849 92.253334,90.787109 
	C99.622002,88.718483 107.058884,86.886024 114.389587,84.694832 
	C115.831993,84.263695 117.986168,82.698318 118.016464,81.606239 
	C118.296310,71.518929 118.181595,61.420677 118.181595,50.767746 
	C110.837547,52.687138 104.264633,54.404991 96.902824,56.336132 
z"/>
<path fill="#FFFEFE" opacity="1.000000" stroke="none" 
	d="
M374.231079,166.000061 
	C374.230988,210.655212 374.186188,254.810486 374.308075,298.965302 
	C374.318817,302.865082 373.233490,305.211823 369.824646,307.414642 
	C333.593689,330.827820 297.469452,354.406616 261.396149,378.062317 
	C258.373688,380.044281 256.233093,380.421753 252.988174,378.290863 
	C216.652023,354.429352 180.225769,330.704498 143.732285,307.084198 
	C140.664337,305.098480 139.695099,302.937378 139.698471,299.399780 
	C139.787933,205.424377 139.803329,111.448837 139.669571,17.473543 
	C139.662933,12.812874 141.062668,11.671284 145.562027,11.679000 
	C219.875763,11.806441 294.189850,11.810616 368.503540,11.671344 
	C373.122559,11.662687 374.339233,12.997538 374.325287,17.539299 
	C374.173645,66.859177 374.230774,116.179703 374.231079,166.000061 
M171.792557,236.485931 
	C172.805649,289.389954 219.321014,328.433167 271.096802,319.838104 
	C315.090973,312.534851 345.253540,273.270203 341.943787,227.611816 
	C338.889709,185.480362 301.971985,151.255569 258.554596,150.305420 
	C211.134903,149.267685 172.932343,186.779678 171.792557,236.485931 
M309.853516,77.668983 
	C312.010468,79.216461 313.972015,81.267235 316.368500,82.197731 
	C320.321960,83.732765 321.132782,86.278404 321.085144,90.206055 
	C320.887177,106.525627 320.925476,122.849709 321.051880,139.170776 
	C321.102539,145.710403 325.513428,150.102951 331.535431,150.166855 
	C337.682861,150.232117 342.114777,146.036942 342.156311,139.426666 
	C342.289246,118.275650 342.283600,97.122887 342.167053,75.971695 
	C342.131744,69.563766 338.531982,65.929955 332.117096,65.034477 
	C324.712311,64.000816 321.988464,61.293800 320.970642,53.957039 
	C320.053619,47.346603 316.347382,43.827530 309.594513,43.813763 
	C274.452362,43.742111 239.309891,43.740547 204.167786,43.822002 
	C197.722580,43.836941 193.946716,47.427723 193.042862,53.687756 
	C191.919830,61.465736 189.462250,63.916176 181.647537,65.050011 
	C175.586426,65.929428 171.883850,69.638184 171.848221,75.708534 
	C171.723114,97.025993 171.789917,118.344681 171.817139,139.662857 
	C171.822769,144.073654 173.869980,147.335312 177.855347,149.223892 
	C185.107376,152.660507 192.869278,147.492722 192.947739,138.929749 
	C193.100342,122.275978 193.064728,105.619347 192.937622,88.965202 
	C192.914734,85.966614 193.560059,84.200905 196.551300,82.859421 
	C202.809082,80.052986 207.703918,75.382309 210.509903,69.133537 
	C212.115982,65.556839 214.264557,64.908905 217.787308,64.927345 
	C243.435532,65.061646 269.086304,65.143425 294.732330,64.870682 
	C299.507568,64.819893 302.374176,65.891968 304.237640,70.460121 
	C305.262238,72.971825 307.593811,74.950378 309.853516,77.668983 
z"/>
<path fill="#FFFFFF" opacity="1.000000" stroke="none" 
	d="
M335.999939,502.303955 
	C238.701569,502.200684 141.903198,502.116302 45.104984,501.936340 
	C40.389603,501.927582 35.675774,501.080536 30.845699,500.612701 
	C80.110397,451.704376 128.720917,403.445496 178.046204,354.477020 
	C182.880020,357.644165 189.814270,362.178741 196.739639,366.726746 
	C215.532990,379.068665 234.367828,391.348480 253.066666,403.832001 
	C256.003479,405.792664 258.023193,405.819458 260.984436,403.853180 
	C285.402710,387.639343 309.977905,371.661987 334.394714,355.446014 
	C337.376801,353.465515 339.038300,353.713928 341.515045,356.205109 
	C387.679810,402.639282 433.938507,448.980103 480.169312,495.348663 
	C481.208557,496.390991 482.152069,497.528778 484.420441,500.038361 
	C478.269897,500.881683 473.367218,502.089020 468.453278,502.136688 
	C444.963470,502.364685 421.470581,502.286835 397.978790,502.301056 
	C377.485840,502.313477 356.992889,502.303711 335.999939,502.303955 
z"/>
<path fill="#FFFFFF" opacity="1.000000" stroke="none" 
	d="
M34.053368,260.919861 
	C75.220131,287.748810 116.081894,314.386719 156.757797,340.903473 
	C109.225807,388.284180 61.963600,435.395966 14.009648,483.197296 
	C13.352633,479.678192 12.183454,476.107605 12.101316,472.512177 
	C11.736030,456.522186 11.537105,440.525055 11.541475,424.530548 
	C11.557096,367.378387 11.679948,310.226196 11.761784,253.074036 
	C11.764359,251.275421 11.762111,249.476822 11.762111,246.476074 
	C19.660475,251.596237 26.704424,256.162506 34.053368,260.919861 
z"/>
<path fill="#FFFFFF" opacity="1.000000" stroke="none" 
	d="
M502.289978,309.000061 
	C502.222412,362.160065 502.195709,414.820190 502.020020,467.479828 
	C502.002747,472.655090 501.070831,477.827301 500.575043,482.882751 
	C452.768616,435.080902 405.596863,387.913635 358.083710,340.405029 
	C404.982391,309.830353 453.010162,278.519623 502.289093,246.393204 
	C502.289093,267.816193 502.289093,288.158112 502.289978,309.000061 
z"/>
<path fill="#FFFEFE" opacity="1.000000" stroke="none" 
	d="
M400.131805,51.815434 
	C429.810211,59.724442 459.057800,67.629951 488.383118,75.235832 
	C493.030396,76.441162 493.485199,78.228012 492.323303,82.538406 
	C477.029053,139.275986 461.896515,196.057281 446.850433,252.861252 
	C445.795319,256.844635 443.872620,259.494293 440.368286,261.684418 
	C427.373291,269.806000 414.566833,278.229095 401.681122,286.525848 
	C400.049805,287.576233 398.368622,288.549164 396.115784,289.919861 
	C396.115784,228.265121 396.115784,167.393494 396.115784,105.956131 
	C400.066376,106.972534 403.798737,107.698006 407.332062,108.974457 
	C408.503387,109.397629 409.670776,111.122879 409.971863,112.449783 
	C411.648682,119.840263 415.241608,125.976379 420.658081,131.285706 
	C421.921051,132.523697 422.615082,135.393127 422.169891,137.158600 
	C418.140503,153.137070 413.568695,168.981812 409.738586,185.005035 
	C408.942291,188.336319 409.424347,193.124359 411.379303,195.636124 
	C413.307190,198.113052 417.849915,199.627731 421.246246,199.629196 
	C425.957703,199.631210 428.788605,195.887604 430.018707,191.310226 
	C433.691040,177.645233 437.350677,163.976837 441.009155,150.308121 
	C442.687653,144.037079 444.455139,137.787399 445.994812,131.482254 
	C447.681732,124.573944 445.477570,120.322311 439.023468,117.461723 
	C432.179596,114.428383 430.381805,111.209534 431.340790,103.706123 
	C432.157715,97.314125 429.567078,92.905373 423.433868,91.110542 
	C415.767334,88.867020 408.034973,86.826210 400.268951,84.955658 
	C397.048462,84.179947 395.564728,82.942787 395.675598,79.294273 
	C395.957855,70.005989 395.769501,60.703411 395.769501,51.041882 
	C397.514679,51.337841 398.620667,51.525410 400.131805,51.815434 
z"/>
<path fill="#FFFEFE" opacity="1.000000" stroke="none" 
	d="
M97.297272,56.229488 
	C104.264633,54.404991 110.837547,52.687138 118.181595,50.767746 
	C118.181595,61.420677 118.296310,71.518929 118.016464,81.606239 
	C117.986168,82.698318 115.831993,84.263695 114.389587,84.694832 
	C107.058884,86.886024 99.622002,88.718483 92.253334,90.787109 
	C84.927025,92.843849 82.455429,96.461586 83.046982,103.939636 
	C83.687256,112.033371 82.167709,114.538414 74.677765,117.736671 
	C68.804634,120.244553 66.296883,124.683189 67.922913,130.945587 
	C73.191811,151.237915 78.589890,171.497726 84.109604,191.723297 
	C85.867310,198.163956 91.741760,201.431946 97.541473,199.719482 
	C103.345169,198.005844 106.346489,192.367279 104.612389,185.710831 
	C100.459526,169.769775 96.225418,153.848282 91.803139,137.980469 
	C90.935425,134.866989 91.678055,133.154053 93.645813,130.584473 
	C97.508171,125.540787 101.078812,119.979073 103.295975,114.077850 
	C104.681793,110.389320 106.209038,108.639694 109.785217,107.998245 
	C112.375816,107.533577 114.909470,106.751495 117.886200,106.006409 
	C117.886200,167.123886 117.886200,227.837311 117.886200,289.291748 
	C116.284355,288.477478 114.979744,287.949890 113.816521,287.202301 
	C99.808937,278.200012 85.767426,269.247772 71.896027,260.039581 
	C70.055801,258.817963 68.428612,256.435059 67.846687,254.280930 
	C52.311005,196.772385 36.954590,139.215439 21.447336,81.699158 
	C20.436367,77.949478 21.137665,76.536613 25.045179,75.521736 
	C49.040085,69.289604 72.958771,62.764030 97.297272,56.229488 
z"/>
<path fill="#E47B7B" opacity="0" stroke="none" 
	d="
M171.791840,235.993240 
	C172.932343,186.779678 211.134903,149.267685 258.554596,150.305420 
	C301.971985,151.255569 338.889709,185.480362 341.943787,227.611816 
	C345.253540,273.270203 315.090973,312.534851 271.096802,319.838104 
	C219.321014,328.433167 172.805649,289.389954 171.791840,235.993240 
M256.558807,299.732452 
	C297.523712,298.491364 326.009949,265.096588 320.081482,225.264008 
	C315.242767,192.752975 286.061218,170.025299 251.632202,171.953140 
	C220.568771,173.692520 194.118011,201.350693 193.005310,232.931976 
	C191.741623,268.798676 219.661240,298.675415 256.558807,299.732452 
z"/>
<path fill="#E4797A" opacity="0" stroke="none" 
	d="
M309.594818,77.419151 
	C307.593811,74.950378 305.262238,72.971825 304.237640,70.460121 
	C302.374176,65.891968 299.507568,64.819893 294.732330,64.870682 
	C269.086304,65.143425 243.435532,65.061646 217.787308,64.927345 
	C214.264557,64.908905 212.115982,65.556839 210.509903,69.133537 
	C207.703918,75.382309 202.809082,80.052986 196.551300,82.859421 
	C193.560059,84.200905 192.914734,85.966614 192.937622,88.965202 
	C193.064728,105.619347 193.100342,122.275978 192.947739,138.929749 
	C192.869278,147.492722 185.107376,152.660507 177.855347,149.223892 
	C173.869980,147.335312 171.822769,144.073654 171.817139,139.662857 
	C171.789917,118.344681 171.723114,97.025993 171.848221,75.708534 
	C171.883850,69.638184 175.586426,65.929428 181.647537,65.050011 
	C189.462250,63.916176 191.919830,61.465736 193.042862,53.687756 
	C193.946716,47.427723 197.722580,43.836941 204.167786,43.822002 
	C239.309891,43.740547 274.452362,43.742111 309.594513,43.813763 
	C316.347382,43.827530 320.053619,47.346603 320.970642,53.957039 
	C321.988464,61.293800 324.712311,64.000816 332.117096,65.034477 
	C338.531982,65.929955 342.131744,69.563766 342.167053,75.971695 
	C342.283600,97.122887 342.289246,118.275650 342.156311,139.426666 
	C342.114777,146.036942 337.682861,150.232117 331.535431,150.166855 
	C325.513428,150.102951 321.102539,145.710403 321.051880,139.170776 
	C320.925476,122.849709 320.887177,106.525627 321.085144,90.206055 
	C321.132782,86.278404 320.321960,83.732765 316.368500,82.197731 
	C313.972015,81.267235 312.010468,79.216461 309.594818,77.419151 
z"/>
<path fill="#FFFFFF" opacity="1.000000" stroke="none" 
	d="
M256.113586,299.716125 
	C219.661240,298.675415 191.741623,268.798676 193.005310,232.931976 
	C194.118011,201.350693 220.568771,173.692520 251.632202,171.953140 
	C286.061218,170.025299 315.242767,192.752975 320.081482,225.264008 
	C326.009949,265.096588 297.523712,298.491364 256.113586,299.716125 
z"/>
</svg>