<svg width="13" height="12" viewBox="0 0 13 12" fill="none" xmlns="http://www.w3.org/2000/svg">
<g clip-path="url(#clip0_476_116)">
<path d="M10.0701 6.47001C10.0901 6.32001 10.1001 6.16501 10.1001 6.00001C10.1001 5.84001 10.0901 5.68001 10.0651 5.53001L11.0801 4.74001C11.1701 4.67001 11.1951 4.53501 11.1401 4.43501L10.1801 2.77501C10.1201 2.66501 9.99506 2.63001 9.88506 2.66501L8.69005 3.14501C8.44005 2.95501 8.17506 2.79501 7.88005 2.67501L7.70005 1.40501C7.68005 1.28501 7.58005 1.20001 7.46005 1.20001H5.54005C5.42005 1.20001 5.32505 1.28501 5.30505 1.40501L5.12505 2.67501C4.83005 2.79501 4.56005 2.96001 4.31505 3.14501L3.12005 2.66501C3.01005 2.62501 2.88505 2.66501 2.82505 2.77501L1.87005 4.43501C1.81005 4.54001 1.83005 4.67001 1.93005 4.74001L2.94505 5.53001C2.92005 5.68001 2.90005 5.84501 2.90005 6.00001C2.90005 6.15501 2.91005 6.32001 2.93505 6.47001L1.92005 7.26001C1.83005 7.33001 1.80505 7.46501 1.86005 7.56501L2.82005 9.22501C2.88005 9.33501 3.00505 9.37001 3.11505 9.33501L4.31005 8.85501C4.56005 9.04501 4.82505 9.20501 5.12005 9.32501L5.30006 10.595C5.32506 10.715 5.42005 10.8 5.54005 10.8H7.46005C7.58005 10.8 7.68006 10.715 7.69506 10.595L7.87505 9.32501C8.17005 9.20501 8.44006 9.04501 8.68506 8.85501L9.88006 9.33501C9.99006 9.37501 10.1151 9.33501 10.1751 9.22501L11.1351 7.56501C11.1951 7.45501 11.1701 7.33001 11.0751 7.26001L10.0701 6.47001ZM6.50005 7.80001C5.51005 7.80001 4.70005 6.99001 4.70005 6.00001C4.70005 5.01001 5.51005 4.20001 6.50005 4.20001C7.49006 4.20001 8.30006 5.01001 8.30006 6.00001C8.30006 6.99001 7.49006 7.80001 6.50005 7.80001Z" fill="white"/>
</g>
<defs>
<clipPath id="clip0_476_116">
<rect width="12" height="12" fill="white" transform="translate(0.5)"/>
</clipPath>
</defs>
</svg>
