<svg version="1.1" id="Layer_1" xmlns="http://www.w3.org/2000/svg" xmlns:xlink="http://www.w3.org/1999/xlink" x="0px" y="0px"
	 width="70%" viewBox="0 0 512 512" enable-background="new 0 0 512 512" xml:space="preserve">
<path fill="#EEBAA4" opacity="0" stroke="none" 
	d="
M275.000000,513.000000 
	C183.355576,513.000000 92.211151,513.000000 1.033362,513.000000 
	C1.033362,342.397217 1.033362,171.794418 1.033362,1.095816 
	C171.561111,1.095816 342.122284,1.095816 512.841736,1.095816 
	C512.841736,171.666550 512.841736,342.333252 512.841736,513.000000 
	C433.794403,513.000000 354.647186,513.000000 275.000000,513.000000 
M334.841461,405.407959 
	C347.874481,392.534149 360.964966,379.717896 373.928589,366.774567 
	C400.936920,339.808502 427.968658,312.864746 454.810303,285.733246 
	C469.026611,271.363373 468.478729,249.039093 453.975342,234.552200 
	C439.791290,220.384277 417.464996,220.121536 403.196716,234.208878 
	C386.593445,250.601593 370.228302,267.235382 353.651703,283.655365 
	C351.201447,286.082428 350.683044,288.223297 351.668304,291.599396 
	C353.194702,296.829712 354.650146,302.286987 354.786865,307.682220 
	C355.519348,336.587494 332.137207,360.581329 303.195099,360.890442 
	C287.530518,361.057770 271.862854,360.943573 256.196594,360.950745 
	C251.363449,360.952942 246.440018,361.488220 241.731720,360.717560 
	C238.998505,360.270172 235.731552,358.238983 234.347763,355.934113 
	C233.252838,354.110382 233.762833,350.029694 235.195129,348.324982 
	C236.811920,346.400635 240.245682,345.132751 242.909653,345.096893 
	C263.072357,344.825775 283.242249,345.105957 303.405609,344.862000 
	C323.281830,344.621552 339.198792,328.094513 338.950012,308.416138 
	C338.703400,288.908203 322.689514,273.054352 302.926392,273.018036 
	C264.427460,272.947296 225.928268,272.985962 187.429245,273.033539 
	C177.227539,273.046143 167.803787,275.981293 160.405655,283.024078 
	C145.806656,296.921906 131.641663,311.275848 117.319809,325.464020 
	C116.530952,326.245483 115.948555,327.235352 114.453133,329.203278 
	C116.175385,330.431702 118.013779,331.394867 119.416367,332.794678 
	C149.025391,362.345428 178.768738,391.766418 207.980225,421.706116 
	C213.040649,426.892700 217.758438,427.680725 224.157181,426.748016 
	C249.832565,423.005493 275.541748,419.492737 301.248749,415.970184 
	C312.817047,414.385040 324.484222,413.219940 334.841461,405.407959 
M402.755249,164.141129 
	C408.376495,137.834976 404.524231,112.750351 392.233917,89.059563 
	C369.780365,45.778294 315.828217,24.747389 270.757660,35.771992 
	C216.018494,49.161617 182.401978,100.364647 190.406479,156.530594 
	C198.733170,214.957336 251.399933,255.061157 309.255951,248.118408 
	C353.953461,242.754684 391.666412,209.121078 402.755249,164.141129 
M108.475632,343.995514 
	C99.990913,335.540771 90.208748,335.473907 81.711159,343.905853 
	C72.965286,352.584167 64.278740,361.322357 55.583008,370.051056 
	C46.484146,379.184387 46.469475,387.796692 55.564617,396.906586 
	C81.327286,422.710907 107.099976,448.505280 132.880478,474.291809 
	C141.949570,483.363007 150.689835,483.436371 159.801865,474.432068 
	C168.210266,466.123047 176.524002,457.718170 184.871216,449.347351 
	C194.955002,439.234924 194.939285,430.669556 184.820038,420.530334 
	C159.532654,395.192932 134.241913,369.858917 108.475632,343.995514 
z"/>
<path fill="#FFFFFF" opacity="1.000000" stroke="none" 
	d="
M334.548584,405.618835 
	C324.484222,413.219940 312.817047,414.385040 301.248749,415.970184 
	C275.541748,419.492737 249.832565,423.005493 224.157181,426.748016 
	C217.758438,427.680725 213.040649,426.892700 207.980225,421.706116 
	C178.768738,391.766418 149.025391,362.345428 119.416367,332.794678 
	C118.013779,331.394867 116.175385,330.431702 114.453133,329.203278 
	C115.948555,327.235352 116.530952,326.245483 117.319809,325.464020 
	C131.641663,311.275848 145.806656,296.921906 160.405655,283.024078 
	C167.803787,275.981293 177.227539,273.046143 187.429245,273.033539 
	C225.928268,272.985962 264.427460,272.947296 302.926392,273.018036 
	C322.689514,273.054352 338.703400,288.908203 338.950012,308.416138 
	C339.198792,328.094513 323.281830,344.621552 303.405609,344.862000 
	C283.242249,345.105957 263.072357,344.825775 242.909653,345.096893 
	C240.245682,345.132751 236.811920,346.400635 235.195129,348.324982 
	C233.762833,350.029694 233.252838,354.110382 234.347763,355.934113 
	C235.731552,358.238983 238.998505,360.270172 241.731720,360.717560 
	C246.440018,361.488220 251.363449,360.952942 256.196594,360.950745 
	C271.862854,360.943573 287.530518,361.057770 303.195099,360.890442 
	C332.137207,360.581329 355.519348,336.587494 354.786865,307.682220 
	C354.650146,302.286987 353.194702,296.829712 351.668304,291.599396 
	C350.683044,288.223297 351.201447,286.082428 353.651703,283.655365 
	C370.228302,267.235382 386.593445,250.601593 403.196716,234.208878 
	C417.464996,220.121536 439.791290,220.384277 453.975342,234.552200 
	C468.478729,249.039093 469.026611,271.363373 454.810303,285.733246 
	C427.968658,312.864746 400.936920,339.808502 373.928589,366.774567 
	C360.964966,379.717896 347.874481,392.534149 334.548584,405.618835 
z"/>
<path fill="#FFFFFF" opacity="1.000000" stroke="none" 
	d="
M402.639465,164.540222 
	C391.666412,209.121078 353.953461,242.754684 309.255951,248.118408 
	C251.399933,255.061157 198.733170,214.957336 190.406479,156.530594 
	C182.401978,100.364647 216.018494,49.161617 270.757660,35.771992 
	C315.828217,24.747389 369.780365,45.778294 392.233917,89.059563 
	C404.524231,112.750351 408.376495,137.834976 402.639465,164.540222 
M323.864349,141.659409 
	C317.945953,135.691223 310.915039,132.478714 302.378845,132.819534 
	C299.219421,132.945679 296.022980,133.081375 292.893707,132.744797 
	C290.129486,132.447479 287.218414,131.942917 284.758423,130.739990 
	C280.553436,128.683777 278.413818,123.232452 279.474701,118.845779 
	C280.822723,113.271973 284.381927,109.980072 289.945404,109.876602 
	C300.602051,109.678429 311.267609,109.916107 321.922058,109.662018 
	C327.335114,109.532936 330.937927,105.947235 330.958832,101.517624 
	C330.979675,97.101868 327.361145,93.656364 321.986755,93.275993 
	C318.836914,93.053062 315.643860,92.992233 312.499908,93.238029 
	C307.554260,93.624687 304.214447,93.113159 304.804779,86.585579 
	C305.201782,82.195663 301.367462,79.105728 297.153992,79.033447 
	C292.936768,78.961098 289.630920,81.914368 289.080963,86.331291 
	C288.937744,87.481628 288.937897,88.665092 289.013062,89.824219 
	C289.174927,92.322014 288.491425,93.564644 285.615540,94.144081 
	C272.407196,96.805336 263.151825,108.040359 263.105621,120.955902 
	C263.058105,134.238190 272.274261,145.573822 285.856262,148.026016 
	C291.361816,149.020020 297.113831,148.729935 302.757446,148.852219 
	C307.251801,148.949615 310.897400,150.460510 313.237274,154.428024 
	C318.026031,162.547913 312.325592,171.598038 302.015625,171.857529 
	C292.027863,172.108917 282.028534,171.863235 272.035370,171.952713 
	C266.517273,172.002121 263.066132,175.171478 263.077423,179.872437 
	C263.087860,184.239838 266.555054,187.608536 271.646179,187.868362 
	C275.467590,188.063370 279.328247,188.183899 283.131317,187.862595 
	C287.576538,187.487045 289.278107,188.824081 289.142670,193.596176 
	C288.966217,199.814407 293.804443,203.491516 299.322144,201.843933 
	C303.887787,200.480606 305.194885,196.842239 305.012726,192.441574 
	C304.912933,190.031570 304.848663,187.651062 308.121246,187.208466 
	C327.192566,184.629120 339.002808,160.184769 323.864349,141.659409 
z"/>
<path fill="#FFFFFE" opacity="1.000000" stroke="none" 
	d="
M108.714073,344.259521 
	C134.241913,369.858917 159.532654,395.192932 184.820038,420.530334 
	C194.939285,430.669556 194.955002,439.234924 184.871216,449.347351 
	C176.524002,457.718170 168.210266,466.123047 159.801865,474.432068 
	C150.689835,483.436371 141.949570,483.363007 132.880478,474.291809 
	C107.099976,448.505280 81.327286,422.710907 55.564617,396.906586 
	C46.469475,387.796692 46.484146,379.184387 55.583008,370.051056 
	C64.278740,361.322357 72.965286,352.584167 81.711159,343.905853 
	C90.208748,335.473907 99.990913,335.540771 108.714073,344.259521 
z"/>
<path fill="#EEBBA5" opacity="0" stroke="none" 
	d="
M324.093842,141.937195 
	C339.002808,160.184769 327.192566,184.629120 308.121246,187.208466 
	C304.848663,187.651062 304.912933,190.031570 305.012726,192.441574 
	C305.194885,196.842239 303.887787,200.480606 299.322144,201.843933 
	C293.804443,203.491516 288.966217,199.814407 289.142670,193.596176 
	C289.278107,188.824081 287.576538,187.487045 283.131317,187.862595 
	C279.328247,188.183899 275.467590,188.063370 271.646179,187.868362 
	C266.555054,187.608536 263.087860,184.239838 263.077423,179.872437 
	C263.066132,175.171478 266.517273,172.002121 272.035370,171.952713 
	C282.028534,171.863235 292.027863,172.108917 302.015625,171.857529 
	C312.325592,171.598038 318.026031,162.547913 313.237274,154.428024 
	C310.897400,150.460510 307.251801,148.949615 302.757446,148.852219 
	C297.113831,148.729935 291.361816,149.020020 285.856262,148.026016 
	C272.274261,145.573822 263.058105,134.238190 263.105621,120.955902 
	C263.151825,108.040359 272.407196,96.805336 285.615540,94.144081 
	C288.491425,93.564644 289.174927,92.322014 289.013062,89.824219 
	C288.937897,88.665092 288.937744,87.481628 289.080963,86.331291 
	C289.630920,81.914368 292.936768,78.961098 297.153992,79.033447 
	C301.367462,79.105728 305.201782,82.195663 304.804779,86.585579 
	C304.214447,93.113159 307.554260,93.624687 312.499908,93.238029 
	C315.643860,92.992233 318.836914,93.053062 321.986755,93.275993 
	C327.361145,93.656364 330.979675,97.101868 330.958832,101.517624 
	C330.937927,105.947235 327.335114,109.532936 321.922058,109.662018 
	C311.267609,109.916107 300.602051,109.678429 289.945404,109.876602 
	C284.381927,109.980072 280.822723,113.271973 279.474701,118.845779 
	C278.413818,123.232452 280.553436,128.683777 284.758423,130.739990 
	C287.218414,131.942917 290.129486,132.447479 292.893707,132.744797 
	C296.022980,133.081375 299.219421,132.945679 302.378845,132.819534 
	C310.915039,132.478714 317.945953,135.691223 324.093842,141.937195 
z"/>
</svg>