<svg version="1.1" id="Layer_1" xmlns="http://www.w3.org/2000/svg" xmlns:xlink="http://www.w3.org/1999/xlink" x="0px" y="0px"
	 width="70%" viewBox="0 0 512 512" enable-background="new 0 0 512 512" xml:space="preserve">
<path fill="#E7FDAB" opacity="0" stroke="none" 
	d="
M1.000000,182.000000 
	C1.000000,121.333336 1.000000,61.166668 1.000000,1.000000 
	C171.666672,1.000000 342.333344,1.000000 513.000000,1.000000 
	C513.000000,171.666672 513.000000,342.333344 513.000000,513.000000 
	C342.333344,513.000000 171.666672,513.000000 1.000000,513.000000 
	C1.000000,402.833344 1.000000,292.666656 1.000000,182.000000 
M369.000000,399.500000 
	C369.000000,379.837219 369.001373,360.174469 368.999542,340.511688 
	C368.998260,326.662903 363.671783,321.145599 349.680481,321.090485 
	C345.862885,321.075439 344.817169,319.821198 344.928955,316.174286 
	C345.163666,308.516449 345.088654,300.844971 344.975616,293.181580 
	C344.817261,282.445129 335.843353,275.137482 325.429749,277.388672 
	C308.376740,281.075134 291.364655,284.950928 274.334564,288.743469 
	C227.780487,299.110870 181.247681,309.576355 134.638657,319.690674 
	C129.909943,320.716797 128.909592,322.558990 128.920303,326.925537 
	C129.044983,377.748047 128.991837,428.570984 129.007004,479.393799 
	C129.010376,490.705902 135.342789,496.992096 146.726746,496.994019 
	C214.879303,497.005493 283.031860,497.005066 351.184418,496.994629 
	C362.818115,496.992859 368.990265,490.739410 368.995911,478.983765 
	C369.008545,452.822510 368.999939,426.661255 369.000000,399.500000 
M217.054123,112.438354 
	C219.210068,114.265541 221.237549,116.276154 223.542480,117.890656 
	C240.603516,129.841141 259.020172,132.754105 278.380341,124.681587 
	C298.931183,116.112610 310.695801,100.025803 312.757355,78.119408 
	C316.283875,40.645618 283.518250,11.405022 246.419022,18.011518 
	C220.806808,22.572447 201.228210,45.959038 200.971344,72.009087 
	C200.818924,87.466797 206.426193,100.547234 217.054123,112.438354 
M20.530102,92.802856 
	C29.131598,113.758797 44.904133,126.551430 67.107346,128.690445 
	C107.236877,132.556458 135.541199,97.313568 127.744934,61.255836 
	C121.189804,30.938280 93.707932,13.632286 66.351402,17.398359 
	C29.413214,22.483498 8.960233,56.381981 20.530102,92.802856 
M402.568298,113.941971 
	C416.346436,125.550179 431.775635,131.118622 450.072815,128.154068 
	C480.864502,123.165108 501.746155,94.121513 495.994446,63.118843 
	C492.013763,41.662319 479.355835,26.932114 458.781311,19.983240 
	C437.530304,12.805907 418.104218,17.591087 401.934784,32.855167 
	C378.994812,54.510708 379.341187,89.752434 402.568298,113.941971 
M417.328796,169.152634 
	C410.880890,165.064743 410.817291,165.025009 406.840607,171.390808 
	C402.964508,177.595535 399.254120,183.903519 395.440063,190.147278 
	C390.620850,198.036545 385.770355,205.906693 380.849426,213.921799 
	C373.937042,209.757889 367.588318,205.933517 360.219452,201.494629 
	C361.996094,219.644455 363.659515,236.637955 365.429260,254.717316 
	C382.154297,248.109299 398.034088,241.835236 415.121674,235.083984 
	C407.617096,230.353607 401.369324,226.415451 394.848694,222.305313 
	C404.788116,205.862900 414.464996,189.854828 424.326355,173.541550 
	C421.854401,171.976807 419.910126,170.746094 417.328796,169.152634 
M149.468323,241.014984 
	C150.753693,228.226837 152.039062,215.438675 153.412537,201.773987 
	C146.426651,205.973511 139.976349,209.851059 133.343765,213.838196 
	C132.170410,212.168549 131.151474,210.878479 130.302292,209.484955 
	C123.555176,198.412872 116.820595,187.333038 110.120728,176.232300 
	C102.544449,163.679428 101.985008,163.591721 89.944275,173.970657 
	C99.622292,189.996552 109.355301,206.113525 119.199791,222.415100 
	C112.459602,226.622421 106.249718,230.498718 99.032806,235.003632 
	C116.149979,241.816467 131.926987,248.095901 148.624954,254.741898 
	C148.844971,249.719406 149.016174,245.810791 149.468323,241.014984 
M272.033783,235.546417 
	C277.364075,228.429916 282.694397,221.313431 288.922363,212.998459 
	C281.558563,212.998459 275.644257,212.799866 269.751526,213.070389 
	C266.010559,213.242142 264.862396,211.975464 264.925049,208.247528 
	C265.129211,196.100479 265.001190,183.947830 265.001129,171.797348 
	C265.001038,160.909912 264.998291,161.084229 254.318588,160.910355 
	C250.258652,160.844254 248.823395,161.925919 248.906082,166.179550 
	C249.161575,179.323730 249.021713,192.476105 248.990875,205.625198 
	C248.971588,213.856216 249.789642,212.939972 241.382599,212.993286 
	C236.378265,213.025024 231.373566,212.999115 225.010437,212.999115 
	C236.255081,227.966263 246.455963,241.544098 257.028015,255.615997 
	C262.274445,248.588715 266.933807,242.347794 272.033783,235.546417 
z"/>
<path fill="#FFFFFF" opacity="1.000000" stroke="none" 
	d="
M369.000000,400.000000 
	C368.999939,426.661255 369.008545,452.822510 368.995911,478.983765 
	C368.990265,490.739410 362.818115,496.992859 351.184418,496.994629 
	C283.031860,497.005066 214.879303,497.005493 146.726746,496.994019 
	C135.342789,496.992096 129.010376,490.705902 129.007004,479.393799 
	C128.991837,428.570984 129.044983,377.748047 128.920303,326.925537 
	C128.909592,322.558990 129.909943,320.716797 134.638657,319.690674 
	C181.247681,309.576355 227.780487,299.110870 274.334564,288.743469 
	C291.364655,284.950928 308.376740,281.075134 325.429749,277.388672 
	C335.843353,275.137482 344.817261,282.445129 344.975616,293.181580 
	C345.088654,300.844971 345.163666,308.516449 344.928955,316.174286 
	C344.817169,319.821198 345.862885,321.075439 349.680481,321.090485 
	C363.671783,321.145599 368.998260,326.662903 368.999542,340.511688 
	C369.001373,360.174469 369.000000,379.837219 369.000000,400.000000 
M311.288757,377.158905 
	C306.800995,378.472992 304.960876,381.554199 304.978943,386.130310 
	C305.039429,401.446991 304.951294,416.764282 305.027802,432.080841 
	C305.057526,438.027100 308.006592,440.932373 313.990509,440.974457 
	C325.477631,441.055206 336.967224,440.895416 348.452484,441.062195 
	C351.877075,441.111877 353.094574,440.090240 353.066345,436.545898 
	C352.920715,418.233368 352.895813,399.917999 353.081512,381.606171 
	C353.121246,377.689667 351.651459,376.876251 348.104645,376.933136 
	C336.120575,377.125397 324.131958,377.031830 311.288757,377.158905 
M267.164917,306.767609 
	C246.852890,311.231293 226.540878,315.694977 206.228851,320.158661 
	C206.272964,320.439117 206.317078,320.719543 206.361206,321.000000 
	C207.851318,321.000000 209.341431,321.000000 210.831543,321.000000 
	C248.127655,321.000519 285.423767,321.001678 322.719879,320.998871 
	C324.051270,320.998779 325.462036,321.221527 326.687286,320.850250 
	C327.564667,320.584442 328.823792,319.509949 328.836975,318.776917 
	C328.988159,310.356140 328.933319,301.931702 328.933319,292.911163 
	C308.089172,297.564362 288.028290,302.042694 267.164917,306.767609 
z"/>
<path fill="#FFFFFE" opacity="1.000000" stroke="none" 
	d="
M216.803406,112.183044 
	C206.426193,100.547234 200.818924,87.466797 200.971344,72.009087 
	C201.228210,45.959038 220.806808,22.572447 246.419022,18.011518 
	C283.518250,11.405022 316.283875,40.645618 312.757355,78.119408 
	C310.695801,100.025803 298.931183,116.112610 278.380341,124.681587 
	C259.020172,132.754105 240.603516,129.841141 223.542480,117.890656 
	C221.237549,116.276154 219.210068,114.265541 216.803406,112.183044 
M277.216553,96.604263 
	C281.684387,89.983154 282.535828,82.948494 278.772125,75.856300 
	C274.852631,68.470551 268.497467,64.771263 259.998840,64.984520 
	C257.505066,65.047089 254.925735,65.277832 252.542450,64.738472 
	C251.240906,64.443924 249.710968,62.862900 249.325302,61.555012 
	C249.025467,60.538128 250.246704,57.998432 250.946548,57.938389 
	C254.974747,57.592804 260.487732,56.111156 262.825714,58.121582 
	C268.762726,63.226772 274.664581,59.879452 280.874237,60.938038 
	C280.400360,51.648209 276.062195,46.002892 268.579071,42.329330 
	C267.169983,41.637592 265.093567,39.912186 265.216034,38.890396 
	C265.902161,33.166080 262.810120,32.519447 258.378693,32.969208 
	C256.565186,33.153267 254.711121,33.099640 252.887039,32.979271 
	C250.225800,32.803669 248.596832,33.676388 249.026550,36.601616 
	C249.530914,40.034943 247.826126,41.450886 244.832718,42.807133 
	C235.848434,46.877708 231.231186,56.379131 233.375977,65.397568 
	C235.601624,74.756065 243.497421,80.910606 253.383514,81.000595 
	C256.046844,81.024834 258.776642,80.732841 261.345490,81.242989 
	C262.655609,81.503181 264.387604,83.081985 264.626099,84.316460 
	C264.859497,85.524605 263.544434,88.171310 262.724335,88.249504 
	C258.846619,88.619247 253.494019,89.926025 251.261093,87.957062 
	C245.384735,82.775368 239.404510,86.057175 233.091995,85.034012 
	C233.297394,92.803337 236.413956,98.168526 242.318665,101.770859 
	C245.941925,103.981308 250.311417,105.242767 249.328247,111.021446 
	C249.267426,111.378914 252.715057,112.966019 254.466385,112.865608 
	C257.970123,112.664726 261.429535,111.690308 264.907257,111.035278 
	C263.612885,105.360237 267.873840,103.892715 271.628571,101.785500 
	C273.596863,100.680862 275.117920,98.779282 277.216553,96.604263 
z"/>
<path fill="#FFFFFE" opacity="1.000000" stroke="none" 
	d="
M20.378864,92.442276 
	C8.960233,56.381981 29.413214,22.483498 66.351402,17.398359 
	C93.707932,13.632286 121.189804,30.938280 127.744934,61.255836 
	C135.541199,97.313568 107.236877,132.556458 67.107346,128.690445 
	C44.904133,126.551430 29.131598,113.758797 20.378864,92.442276 
M56.750481,76.837593 
	C61.426277,78.225105 66.061638,79.780319 70.796684,80.922112 
	C72.848473,81.416870 75.200119,80.693344 77.236427,81.218216 
	C78.590469,81.567230 80.331993,82.990044 80.605362,84.219994 
	C80.871445,85.417206 79.606430,88.109367 78.810310,88.192284 
	C74.935776,88.595787 69.527657,89.968994 67.356941,88.011269 
	C61.506756,82.735100 55.492260,86.041847 49.655575,85.091179 
	C48.752533,92.431366 52.878422,99.549644 60.380241,102.951515 
	C63.722290,104.467056 65.489258,106.056534 65.068680,109.886978 
	C64.651535,113.686203 67.827667,113.436821 69.837013,112.876656 
	C73.528809,111.847443 78.593712,116.212395 80.971451,110.139496 
	C81.028580,109.993568 81.013527,109.804939 80.987946,109.643211 
	C80.424202,106.078819 82.172874,104.517250 85.383102,103.064217 
	C94.064026,99.135002 98.647469,89.607674 96.685410,80.814011 
	C94.564629,71.308990 86.527687,65.064812 76.337639,64.999176 
	C73.840202,64.983086 71.245041,65.352509 68.881790,64.776955 
	C67.440681,64.425987 65.868523,62.804565 65.295303,61.376446 
	C64.951080,60.518860 66.340843,57.903248 67.079987,57.849571 
	C71.112373,57.556747 76.586449,56.172176 78.967430,58.205078 
	C84.929771,63.295753 90.744507,59.919651 96.911728,60.822903 
	C96.332619,51.748249 92.310562,45.813770 84.802666,42.655174 
	C81.744919,41.368774 80.706482,39.752537 80.952950,36.703949 
	C81.039734,35.630371 80.624504,34.516209 80.438705,33.421867 
	C75.223640,33.421867 70.333092,33.421867 65.638428,33.421867 
	C64.085335,36.651237 66.479012,40.442780 61.621719,42.531986 
	C47.074547,48.788979 44.665195,65.149918 56.750481,76.837593 
z"/>
<path fill="#FFFFFE" opacity="1.000000" stroke="none" 
	d="
M402.315002,113.693832 
	C379.341187,89.752434 378.994812,54.510708 401.934784,32.855167 
	C418.104218,17.591087 437.530304,12.805907 458.781311,19.983240 
	C479.355835,26.932114 492.013763,41.662319 495.994446,63.118843 
	C501.746155,94.121513 480.864502,123.165108 450.072815,128.154068 
	C431.775635,131.118622 416.346436,125.550179 402.315002,113.693832 
M464.822083,59.538307 
	C464.184174,51.260487 459.861938,45.521896 452.334076,42.418110 
	C449.636505,41.305889 448.823364,39.816387 448.959625,37.181973 
	C449.024139,35.935219 448.658569,34.666225 448.490601,33.427620 
	C443.207520,33.427620 438.317932,33.427620 432.763000,33.427620 
	C434.710846,39.708195 430.864258,41.717003 426.541382,44.158653 
	C418.660828,48.609737 415.279419,57.710091 417.582550,66.034042 
	C420.093658,75.109589 427.599762,80.883453 437.046326,80.996552 
	C439.709686,81.028442 442.454529,80.658806 445.005310,81.205002 
	C446.454712,81.515343 448.066498,83.098625 448.681793,84.510941 
	C449.050903,85.358231 447.726868,88.023445 447.015900,88.082214 
	C442.988037,88.415131 437.462341,89.876816 435.142181,87.857323 
	C429.199951,82.685089 423.307312,86.142937 417.474121,85.134644 
	C417.017426,93.314430 421.460205,99.744415 429.420349,103.666183 
	C430.829285,104.360352 432.919678,106.102150 432.785034,107.103188 
	C431.926453,113.485802 435.820160,113.324524 440.112061,113.019554 
	C441.768860,112.901825 443.447327,112.904572 445.104431,113.018959 
	C447.755310,113.201942 449.399872,112.343010 448.974213,109.408569 
	C448.478455,105.991295 450.141846,104.551941 453.152313,103.196190 
	C462.076508,99.177216 466.757141,89.547615 464.621552,80.596573 
	C462.387848,71.234093 454.499969,65.086632 444.618805,64.999252 
	C441.956207,64.975708 439.227295,65.266899 436.658905,64.757591 
	C435.348022,64.497643 433.615601,62.923443 433.374237,61.688984 
	C433.138184,60.481598 434.447571,57.831509 435.265045,57.752884 
	C439.141876,57.380005 444.395325,56.087673 446.742096,58.034920 
	C452.623016,62.914764 458.484833,60.659626 464.822083,59.538307 
z"/>
<path fill="#FFFFFE" opacity="1.000000" stroke="none" 
	d="
M417.647339,169.334015 
	C419.910126,170.746094 421.854401,171.976807 424.326355,173.541550 
	C414.464996,189.854828 404.788116,205.862900 394.848694,222.305313 
	C401.369324,226.415451 407.617096,230.353607 415.121674,235.083984 
	C398.034088,241.835236 382.154297,248.109299 365.429260,254.717316 
	C363.659515,236.637955 361.996094,219.644455 360.219452,201.494629 
	C367.588318,205.933517 373.937042,209.757889 380.849426,213.921799 
	C385.770355,205.906693 390.620850,198.036545 395.440063,190.147278 
	C399.254120,183.903519 402.964508,177.595535 406.840607,171.390808 
	C410.817291,165.025009 410.880890,165.064743 417.647339,169.334015 
z"/>
<path fill="#FFFFFE" opacity="1.000000" stroke="none" 
	d="
M149.327850,241.458572 
	C149.016174,245.810791 148.844971,249.719406 148.624954,254.741898 
	C131.926987,248.095901 116.149979,241.816467 99.032806,235.003632 
	C106.249718,230.498718 112.459602,226.622421 119.199791,222.415100 
	C109.355301,206.113525 99.622292,189.996552 89.944275,173.970657 
	C101.985008,163.591721 102.544449,163.679428 110.120728,176.232300 
	C116.820595,187.333038 123.555176,198.412872 130.302292,209.484955 
	C131.151474,210.878479 132.170410,212.168549 133.343765,213.838196 
	C139.976349,209.851059 146.426651,205.973511 153.412537,201.773987 
	C152.039062,215.438675 150.753693,228.226837 149.327850,241.458572 
z"/>
<path fill="#FFFFFF" opacity="1.000000" stroke="none" 
	d="
M271.813477,235.826645 
	C266.933807,242.347794 262.274445,248.588715 257.028015,255.615997 
	C246.455963,241.544098 236.255081,227.966263 225.010437,212.999115 
	C231.373566,212.999115 236.378265,213.025024 241.382599,212.993286 
	C249.789642,212.939972 248.971588,213.856216 248.990875,205.625198 
	C249.021713,192.476105 249.161575,179.323730 248.906082,166.179550 
	C248.823395,161.925919 250.258652,160.844254 254.318588,160.910355 
	C264.998291,161.084229 265.001038,160.909912 265.001129,171.797348 
	C265.001190,183.947830 265.129211,196.100479 264.925049,208.247528 
	C264.862396,211.975464 266.010559,213.242142 269.751526,213.070389 
	C275.644257,212.799866 281.558563,212.998459 288.922363,212.998459 
	C282.694397,221.313431 277.364075,228.429916 271.813477,235.826645 
z"/>
<path fill="#E7FDAB" opacity="0" stroke="none" 
	d="
M311.716919,377.103210 
	C324.131958,377.031830 336.120575,377.125397 348.104645,376.933136 
	C351.651459,376.876251 353.121246,377.689667 353.081512,381.606171 
	C352.895813,399.917999 352.920715,418.233368 353.066345,436.545898 
	C353.094574,440.090240 351.877075,441.111877 348.452484,441.062195 
	C336.967224,440.895416 325.477631,441.055206 313.990509,440.974457 
	C308.006592,440.932373 305.057526,438.027100 305.027802,432.080841 
	C304.951294,416.764282 305.039429,401.446991 304.978943,386.130310 
	C304.960876,381.554199 306.800995,378.472992 311.716919,377.103210 
M337.000000,408.524170 
	C336.923584,400.232269 337.860352,401.058929 329.629730,401.001892 
	C327.976746,400.990417 326.315765,401.106537 324.672211,400.982269 
	C321.838654,400.767975 320.766907,402.065033 320.985321,404.786652 
	C321.090759,406.100555 320.987030,407.430237 321.002319,408.752533 
	C321.109863,418.056152 319.889496,416.967072 329.134888,416.978851 
	C337.860840,416.989960 336.918152,417.958527 337.000000,408.524170 
z"/>
<path fill="#E7FDAC" opacity="0" stroke="none" 
	d="
M267.566162,306.644318 
	C288.028290,302.042694 308.089172,297.564362 328.933319,292.911163 
	C328.933319,301.931702 328.988159,310.356140 328.836975,318.776917 
	C328.823792,319.509949 327.564667,320.584442 326.687286,320.850250 
	C325.462036,321.221527 324.051270,320.998779 322.719879,320.998871 
	C285.423767,321.001678 248.127655,321.000519 210.831543,321.000000 
	C209.341431,321.000000 207.851318,321.000000 206.361206,321.000000 
	C206.317078,320.719543 206.272964,320.439117 206.228851,320.158661 
	C226.540878,315.694977 246.852890,311.231293 267.566162,306.644318 
z"/>
<path fill="#E7FDAC" opacity="0" stroke="none" 
	d="
M277.028748,96.920937 
	C275.117920,98.779282 273.596863,100.680862 271.628571,101.785500 
	C267.873840,103.892715 263.612885,105.360237 264.907257,111.035278 
	C261.429535,111.690308 257.970123,112.664726 254.466385,112.865608 
	C252.715057,112.966019 249.267426,111.378914 249.328247,111.021446 
	C250.311417,105.242767 245.941925,103.981308 242.318665,101.770859 
	C236.413956,98.168526 233.297394,92.803337 233.091995,85.034012 
	C239.404510,86.057175 245.384735,82.775368 251.261093,87.957062 
	C253.494019,89.926025 258.846619,88.619247 262.724335,88.249504 
	C263.544434,88.171310 264.859497,85.524605 264.626099,84.316460 
	C264.387604,83.081985 262.655609,81.503181 261.345490,81.242989 
	C258.776642,80.732841 256.046844,81.024834 253.383514,81.000595 
	C243.497421,80.910606 235.601624,74.756065 233.375977,65.397568 
	C231.231186,56.379131 235.848434,46.877708 244.832718,42.807133 
	C247.826126,41.450886 249.530914,40.034943 249.026550,36.601616 
	C248.596832,33.676388 250.225800,32.803669 252.887039,32.979271 
	C254.711121,33.099640 256.565186,33.153267 258.378693,32.969208 
	C262.810120,32.519447 265.902161,33.166080 265.216034,38.890396 
	C265.093567,39.912186 267.169983,41.637592 268.579071,42.329330 
	C276.062195,46.002892 280.400360,51.648209 280.874237,60.938038 
	C274.664581,59.879452 268.762726,63.226772 262.825714,58.121582 
	C260.487732,56.111156 254.974747,57.592804 250.946548,57.938389 
	C250.246704,57.998432 249.025467,60.538128 249.325302,61.555012 
	C249.710968,62.862900 251.240906,64.443924 252.542450,64.738472 
	C254.925735,65.277832 257.505066,65.047089 259.998840,64.984520 
	C268.497467,64.771263 274.852631,68.470551 278.772125,75.856300 
	C282.535828,82.948494 281.684387,89.983154 277.028748,96.920937 
z"/>
<path fill="#E7FDAC" opacity="0" stroke="none" 
	d="
M56.451275,76.628197 
	C44.665195,65.149918 47.074547,48.788979 61.621719,42.531986 
	C66.479012,40.442780 64.085335,36.651237 65.638428,33.421867 
	C70.333092,33.421867 75.223640,33.421867 80.438705,33.421867 
	C80.624504,34.516209 81.039734,35.630371 80.952950,36.703949 
	C80.706482,39.752537 81.744919,41.368774 84.802666,42.655174 
	C92.310562,45.813770 96.332619,51.748249 96.911728,60.822903 
	C90.744507,59.919651 84.929771,63.295753 78.967430,58.205078 
	C76.586449,56.172176 71.112373,57.556747 67.079987,57.849571 
	C66.340843,57.903248 64.951080,60.518860 65.295303,61.376446 
	C65.868523,62.804565 67.440681,64.425987 68.881790,64.776955 
	C71.245041,65.352509 73.840202,64.983086 76.337639,64.999176 
	C86.527687,65.064812 94.564629,71.308990 96.685410,80.814011 
	C98.647469,89.607674 94.064026,99.135002 85.383102,103.064217 
	C82.172874,104.517250 80.424202,106.078819 80.987946,109.643211 
	C81.013527,109.804939 81.028580,109.993568 80.971451,110.139496 
	C78.593712,116.212395 73.528809,111.847443 69.837013,112.876656 
	C67.827667,113.436821 64.651535,113.686203 65.068680,109.886978 
	C65.489258,106.056534 63.722290,104.467056 60.380241,102.951515 
	C52.878422,99.549644 48.752533,92.431366 49.655575,85.091179 
	C55.492260,86.041847 61.506756,82.735100 67.356941,88.011269 
	C69.527657,89.968994 74.935776,88.595787 78.810310,88.192284 
	C79.606430,88.109367 80.871445,85.417206 80.605362,84.219994 
	C80.331993,82.990044 78.590469,81.567230 77.236427,81.218216 
	C75.200119,80.693344 72.848473,81.416870 70.796684,80.922112 
	C66.061638,79.780319 61.426277,78.225105 56.451275,76.628197 
z"/>
<path fill="#E7FDAC" opacity="0" stroke="none" 
	d="
M464.658936,59.923595 
	C458.484833,60.659626 452.623016,62.914764 446.742096,58.034920 
	C444.395325,56.087673 439.141876,57.380005 435.265045,57.752884 
	C434.447571,57.831509 433.138184,60.481598 433.374237,61.688984 
	C433.615601,62.923443 435.348022,64.497643 436.658905,64.757591 
	C439.227295,65.266899 441.956207,64.975708 444.618805,64.999252 
	C454.499969,65.086632 462.387848,71.234093 464.621552,80.596573 
	C466.757141,89.547615 462.076508,99.177216 453.152313,103.196190 
	C450.141846,104.551941 448.478455,105.991295 448.974213,109.408569 
	C449.399872,112.343010 447.755310,113.201942 445.104431,113.018959 
	C443.447327,112.904572 441.768860,112.901825 440.112061,113.019554 
	C435.820160,113.324524 431.926453,113.485802 432.785034,107.103188 
	C432.919678,106.102150 430.829285,104.360352 429.420349,103.666183 
	C421.460205,99.744415 417.017426,93.314430 417.474121,85.134644 
	C423.307312,86.142937 429.199951,82.685089 435.142181,87.857323 
	C437.462341,89.876816 442.988037,88.415131 447.015900,88.082214 
	C447.726868,88.023445 449.050903,85.358231 448.681793,84.510941 
	C448.066498,83.098625 446.454712,81.515343 445.005310,81.205002 
	C442.454529,80.658806 439.709686,81.028442 437.046326,80.996552 
	C427.599762,80.883453 420.093658,75.109589 417.582550,66.034042 
	C415.279419,57.710091 418.660828,48.609737 426.541382,44.158653 
	C430.864258,41.717003 434.710846,39.708195 432.763000,33.427620 
	C438.317932,33.427620 443.207520,33.427620 448.490601,33.427620 
	C448.658569,34.666225 449.024139,35.935219 448.959625,37.181973 
	C448.823364,39.816387 449.636505,41.305889 452.334076,42.418110 
	C459.861938,45.521896 464.184174,51.260487 464.658936,59.923595 
z"/>
<path fill="#FFFFFF" opacity="1.000000" stroke="none" 
	d="
M337.000000,408.999542 
	C336.918152,417.958527 337.860840,416.989960 329.134888,416.978851 
	C319.889496,416.967072 321.109863,418.056152 321.002319,408.752533 
	C320.987030,407.430237 321.090759,406.100555 320.985321,404.786652 
	C320.766907,402.065033 321.838654,400.767975 324.672211,400.982269 
	C326.315765,401.106537 327.976746,400.990417 329.629730,401.001892 
	C337.860352,401.058929 336.923584,400.232269 337.000000,408.999542 
z"/>
</svg>