<svg version="1.1" id="Layer_1" xmlns="http://www.w3.org/2000/svg" xmlns:xlink="http://www.w3.org/1999/xlink" x="0px" y="0px"
	 width="55%" viewBox="0 0 512 512" enable-background="new 0 0 512 512" xml:space="preserve">
<path fill="#FFFFFF" opacity="1.000000" stroke="none" 
	d="
M513.000000,134.000000 
	C513.000000,170.020889 513.000000,206.041794 512.531372,242.531219 
	C462.409821,242.999695 412.756744,242.924576 363.104401,243.085968 
	C356.197510,243.108429 349.209717,243.818985 342.403870,245.025757 
	C309.921967,250.785278 286.195557,278.763550 283.220947,310.505737 
	C280.733063,337.054016 290.256104,359.485535 311.118439,376.484772 
	C324.113129,387.073242 339.142303,392.928192 356.043457,392.960663 
	C408.362152,393.061218 460.681122,392.999023 513.000000,393.000000 
	C513.000000,428.687561 513.000000,464.375122 512.742920,500.758545 
	C510.830231,507.464722 506.325653,510.640808 501.000000,513.000000 
	C338.645782,513.000000 176.291550,513.000000 13.241321,512.742981 
	C6.535060,510.830292 3.358933,506.325867 1.000000,501.000000 
	C1.000000,378.979095 1.000000,256.958221 1.282580,134.277786 
	C4.879891,125.681664 10.936698,122.910408 19.374451,122.916519 
	C176.852631,123.030579 334.330994,123.062439 491.808929,122.847916 
	C501.393402,122.834862 508.739044,124.934128 513.000000,134.000000 
z"/>
<path fill="#F4DAA8" opacity="0" stroke="none" 
	d="
M513.000000,133.531342 
	C508.739044,124.934128 501.393402,122.834862 491.808929,122.847916 
	C334.330994,123.062439 176.852631,123.030579 19.374451,122.916519 
	C10.936698,122.910408 4.879891,125.681664 1.282580,133.809128 
	C1.000000,89.732498 1.000000,45.464996 1.000000,1.000000 
	C54.687401,1.000000 108.375038,1.000000 162.339203,1.280605 
	C159.903854,3.651485 156.560699,5.267731 154.579178,7.906460 
	C137.521301,30.621885 120.703087,53.517357 103.828262,76.370110 
	C99.940071,81.635696 96.109200,86.943611 91.832611,92.806992 
	C158.558456,92.806992 224.242599,92.806992 290.994873,92.806992 
	C281.113220,85.134155 271.995728,78.037231 262.859589,70.964363 
	C244.473831,56.730827 226.141052,42.427788 207.663818,28.313929 
	C195.553772,19.063662 183.228745,10.094859 171.000000,1.000000 
	C205.354233,1.000000 239.708450,1.000000 274.328064,1.275181 
	C273.975220,1.789711 273.145782,1.850592 272.770325,2.295032 
	C266.605194,9.592386 260.445251,16.896626 254.495605,24.367697 
	C254.105377,24.857727 255.094894,27.097515 256.001129,27.857115 
	C260.074371,31.271338 264.344482,34.451145 268.552551,37.703926 
	C290.245178,54.472008 311.908478,71.278427 333.676025,87.948662 
	C336.362305,90.005882 339.579590,92.705254 342.601959,92.771492 
	C362.365112,93.204659 382.142395,92.994408 403.276398,92.994408 
	C393.151855,85.140427 384.034943,78.053764 374.902679,70.986877 
	C356.506622,56.751289 338.164795,42.444477 319.678925,28.326336 
	C307.562988,19.073057 295.233704,10.099079 283.000000,1.000004 
	C359.574188,1.000000 436.148407,1.000000 513.000000,1.000000 
	C513.000000,45.020508 513.000000,89.041595 513.000000,133.531342 
z"/>
<path fill="#FFFFFF" opacity="1.000000" stroke="none" 
	d="
M513.000000,273.000000 
	C513.000000,302.687561 513.000000,332.375122 512.531372,362.531342 
	C460.590851,362.999237 409.118042,363.183075 357.647614,362.914215 
	C334.386871,362.792725 316.192780,346.521576 313.349609,324.014740 
	C309.718414,295.269897 331.659851,273.025055 358.584656,273.009674 
	C410.056427,272.980255 461.528229,273.000397 513.000000,273.000000 
z"/>
<path fill="#F4DAA8" opacity="0" stroke="none" 
	d="
M513.000000,272.531342 
	C461.528229,273.000397 410.056427,272.980255 358.584656,273.009674 
	C331.659851,273.025055 309.718414,295.269897 313.349609,324.014740 
	C316.192780,346.521576 334.386871,362.792725 357.647614,362.914215 
	C409.118042,363.183075 460.590851,362.999237 512.531372,363.000000 
	C513.000000,372.687561 513.000000,382.375122 513.000000,392.531342 
	C460.681122,392.999023 408.362152,393.061218 356.043457,392.960663 
	C339.142303,392.928192 324.113129,387.073242 311.118439,376.484772 
	C290.256104,359.485535 280.733063,337.054016 283.220947,310.505737 
	C286.195557,278.763550 309.921967,250.785278 342.403870,245.025757 
	C349.209717,243.818985 356.197510,243.108429 363.104401,243.085968 
	C412.756744,242.924576 462.409821,242.999695 512.531372,242.999878 
	C513.000000,252.687561 513.000000,262.375122 513.000000,272.531342 
z"/>
<path fill="#FFFFFF" opacity="1.000000" stroke="none" 
	d="
M170.555832,1.000000 
	C183.228745,10.094859 195.553772,19.063662 207.663818,28.313929 
	C226.141052,42.427788 244.473831,56.730827 262.859589,70.964363 
	C271.995728,78.037231 281.113220,85.134155 290.994873,92.806992 
	C224.242599,92.806992 158.558456,92.806992 91.832611,92.806992 
	C96.109200,86.943611 99.940071,81.635696 103.828262,76.370110 
	C120.703087,53.517357 137.521301,30.621885 154.579178,7.906460 
	C156.560699,5.267731 159.903854,3.651485 162.807861,1.280605 
	C165.370560,1.000000 167.741104,1.000000 170.555832,1.000000 
z"/>
<path fill="#FFFFFE" opacity="1.000000" stroke="none" 
	d="
M282.555847,1.000004 
	C295.233704,10.099079 307.562988,19.073057 319.678925,28.326336 
	C338.164795,42.444477 356.506622,56.751289 374.902679,70.986877 
	C384.034943,78.053764 393.151855,85.140427 403.276398,92.994408 
	C382.142395,92.994408 362.365112,93.204659 342.601959,92.771492 
	C339.579590,92.705254 336.362305,90.005882 333.676025,87.948662 
	C311.908478,71.278427 290.245178,54.472008 268.552551,37.703926 
	C264.344482,34.451145 260.074371,31.271338 256.001129,27.857115 
	C255.094894,27.097515 254.105377,24.857727 254.495605,24.367697 
	C260.445251,16.896626 266.605194,9.592386 272.770325,2.295032 
	C273.145782,1.850592 273.975220,1.789711 274.796722,1.275181 
	C277.370575,1.000000 279.741119,1.000000 282.555847,1.000004 
z"/>
<path fill="#F5DCAD" opacity="0" stroke="none" 
	d="
M1.000000,501.479187 
	C3.358933,506.325867 6.535060,510.830292 12.772663,512.742981 
	C9.078021,513.000000 5.156042,513.000000 1.000000,513.000000 
	C1.000000,509.321411 1.000000,505.639893 1.000000,501.479187 
z"/>
<path fill="#F5DCAD" opacity="0" stroke="none" 
	d="
M501.479187,513.000000 
	C506.325653,510.640808 510.830231,507.464722 512.742920,501.227234 
	C513.000000,504.921967 513.000000,508.843964 513.000000,513.000000 
	C509.321411,513.000000 505.639893,513.000000 501.479187,513.000000 
z"/>
</svg>