<svg width="13" height="11" viewBox="0 0 13 11" fill="none" xmlns="http://www.w3.org/2000/svg">
<path d="M2.7 4.95001H0.5V11H2.7V4.95001Z" fill="white"/>
<path d="M8.74995 0.6875C9.10745 0.2695 9.66295 0 10.235 0C11.2525 0 12.05 0.7975 12.05 1.815C12.05 3.0635 10.4495 4.51 8.74995 6.05C7.05045 4.5045 5.44995 3.058 5.44995 1.815C5.44995 0.7975 6.24745 0 7.26495 0C7.83695 0 8.39245 0.2695 8.74995 0.6875Z" fill="white"/>
<path d="M10.95 8.25001H7.10005L5.95055 7.84851L6.13205 7.33151L7.10005 7.70001H8.65105C9.00855 7.70001 9.30005 7.40851 9.30005 7.05101C9.30005 6.78151 9.12955 6.53951 8.87655 6.44051L4.88355 4.95001H3.80005V9.91101L7.65005 11L12.0555 9.35001C12.05 8.74501 11.5605 8.25001 10.95 8.25001Z" fill="white"/>
</svg>
