<svg width="11" height="11" viewBox="0 0 11 11" fill="none" xmlns="http://www.w3.org/2000/svg">
<path d="M9.34444 0.65463C9.23333 0.272222 8.92222 0 8.55556 0H2.44444C2.07778 0 1.77222 0.272222 1.65556 0.65463L0.5 4.53704V9.72222C0.5 10.0787 0.75 10.3704 1.05556 10.3704H1.61111C1.91667 10.3704 2.16667 10.0787 2.16667 9.72222V9.07407H8.83333V9.72222C8.83333 10.0787 9.08333 10.3704 9.38889 10.3704H9.94444C10.25 10.3704 10.5 10.0787 10.5 9.72222V4.53704L9.34444 0.65463ZM2.44444 7.12963C1.98333 7.12963 1.61111 6.69537 1.61111 6.15741C1.61111 5.61944 1.98333 5.18518 2.44444 5.18518C2.90556 5.18518 3.27778 5.61944 3.27778 6.15741C3.27778 6.69537 2.90556 7.12963 2.44444 7.12963ZM8.55556 7.12963C8.09444 7.12963 7.72222 6.69537 7.72222 6.15741C7.72222 5.61944 8.09444 5.18518 8.55556 5.18518C9.01667 5.18518 9.38889 5.61944 9.38889 6.15741C9.38889 6.69537 9.01667 7.12963 8.55556 7.12963ZM1.61111 3.88889L2.44444 0.972222H8.55556L9.38889 3.88889H1.61111Z" fill="white"/>
</svg>
