<svg width="12" height="9" viewBox="0 0 12 9" fill="none" xmlns="http://www.w3.org/2000/svg">
<path d="M3.8 7.2C3.195 7.2 2.7055 7.605 2.7055 8.1C2.7055 8.595 3.195 9 3.8 9C4.405 9 4.9 8.595 4.9 8.1C4.9 7.605 4.405 7.2 3.8 7.2ZM0.5 0V0.9H1.6L3.58 4.3155L2.8375 5.418C2.7495 5.544 2.7 5.6925 2.7 5.85C2.7 6.345 3.195 6.75 3.8 6.75H10.4V5.85H4.031C3.954 5.85 3.8935 5.8005 3.8935 5.7375L3.91 5.6835L4.405 4.95H8.5025C8.915 4.95 9.278 4.7655 9.465 4.4865L11.434 1.566C11.478 1.503 11.5 1.4265 11.5 1.35C11.5 1.1025 11.2525 0.9 10.95 0.9H2.8155L2.2985 0H0.5ZM9.3 7.2C8.695 7.2 8.2055 7.605 8.2055 8.1C8.2055 8.595 8.695 9 9.3 9C9.905 9 10.4 8.595 10.4 8.1C10.4 7.605 9.905 7.2 9.3 7.2Z" fill="white"/>
</svg>
