<svg width="11" height="9" viewBox="0 0 11 9" fill="none" xmlns="http://www.w3.org/2000/svg">
<path d="M9.785 3.83C9.715 3.63 9.525 3.5 9.3 3.5H5.705C5.475 3.5 5.29 3.63 5.215 3.83L4.5 5.885L4.505 8.64C4.505 8.83 4.66 9 4.85 9H5.16C5.35 9 5.5 8.81 5.5 8.62V8H9.5V8.62C9.5 8.81 9.655 9 9.845 9H10.15C10.34 9 10.495 8.83 10.495 8.64L10.5 7.955V5.885L9.785 3.83ZM5.705 4H9.3L9.815 5.5H5.19L5.705 4ZM5.5 7C5.225 7 5 6.775 5 6.5C5 6.225 5.225 6 5.5 6C5.775 6 6 6.225 6 6.5C6 6.775 5.775 7 5.5 7ZM9.5 7C9.225 7 9 6.775 9 6.5C9 6.225 9.225 6 9.5 6C9.775 6 10 6.225 10 6.5C10 6.775 9.775 7 9.5 7Z" fill="white"/>
<path d="M6.5 3H7V0H3V2.5H0.5V9H1V3H3.5V0.5H6.5V3Z" fill="white"/>
<path d="M3 4H2V5H3V4Z" fill="white"/>
<path d="M5.5 1H4.5V2H5.5V1Z" fill="white"/>
<path d="M3 6H2V7H3V6Z" fill="white"/>
<path d="M3 8H2V9H3V8Z" fill="white"/>
</svg>
