<svg width="13" height="12" viewBox="0 0 13 12" fill="none" xmlns="http://www.w3.org/2000/svg">
<g clip-path="url(#clip0_476_95)">
<path d="M2.75 6C3.44036 6 4 5.44036 4 4.75C4 4.05964 3.44036 3.5 2.75 3.5C2.05964 3.5 1.5 4.05964 1.5 4.75C1.5 5.44036 2.05964 6 2.75 6Z" fill="white"/>
<path d="M5 4C5.69036 4 6.25 3.44036 6.25 2.75C6.25 2.05964 5.69036 1.5 5 1.5C4.30964 1.5 3.75 2.05964 3.75 2.75C3.75 3.44036 4.30964 4 5 4Z" fill="white"/>
<path d="M8 4C8.69036 4 9.25 3.44036 9.25 2.75C9.25 2.05964 8.69036 1.5 8 1.5C7.30964 1.5 6.75 2.05964 6.75 2.75C6.75 3.44036 7.30964 4 8 4Z" fill="white"/>
<path d="M10.25 6C10.9404 6 11.5 5.44036 11.5 4.75C11.5 4.05964 10.9404 3.5 10.25 3.5C9.55964 3.5 9 4.05964 9 4.75C9 5.44036 9.55964 6 10.25 6Z" fill="white"/>
<path d="M9.16995 7.43C8.73495 6.92 8.36995 6.485 7.92995 5.975C7.69995 5.705 7.40495 5.435 7.05495 5.315C6.99995 5.295 6.94495 5.28 6.88995 5.27C6.76495 5.25 6.62995 5.25 6.49995 5.25C6.36995 5.25 6.23495 5.25 6.10495 5.275C6.04995 5.285 5.99495 5.3 5.93995 5.32C5.58995 5.44 5.29995 5.71 5.06495 5.98C4.62995 6.49 4.26495 6.925 3.82495 7.435C3.16995 8.09 2.36495 8.815 2.51495 9.83C2.65995 10.34 3.02495 10.845 3.67995 10.99C4.04495 11.065 5.20995 10.77 6.44995 10.77H6.53995C7.77995 10.77 8.94495 11.06 9.30995 10.99C9.96495 10.845 10.3299 10.335 10.4749 9.83C10.6299 8.81 9.82495 8.085 9.16995 7.43Z" fill="white"/>
</g>
<defs>
<clipPath id="clip0_476_95">
<rect width="12" height="12" fill="white" transform="translate(0.5)"/>
</clipPath>
</defs>
</svg>
