<svg width="12" height="15" viewBox="0 0 12 15" fill="none" xmlns="http://www.w3.org/2000/svg">
<path d="M9.03 14.2593H9.86C10.28 14.2593 10.625 13.8443 10.675 13.3125L11.5 2.62619H9V0H8.015V2.62619H5.53L5.68 4.14355C6.535 4.44832 7.335 4.99949 7.815 5.60903C8.535 6.52982 9.03 7.48303 9.03 9.03929V14.2593ZM0.5 13.6108V12.9689H8.015V13.6108C8.015 13.9675 7.79 14.2593 7.51 14.2593H1.005C0.725 14.2593 0.5 13.9675 0.5 13.6108ZM8.015 9.07172C8.015 3.88417 0.5 3.88417 0.5 9.07172H8.015ZM0.51 10.3751H8.01V11.672H0.51V10.3751Z" fill="white"/>
</svg>
