<svg width="10" height="10" viewBox="0 0 10 10" fill="none" xmlns="http://www.w3.org/2000/svg">
<path d="M9.10182 2.35L9.10727 2.34444L7.07818 0.277778L6.5 0.866667L7.65091 2.03889C7.13818 2.23889 6.77273 2.73889 6.77273 3.33333C6.77273 4.1 7.38364 4.72222 8.13636 4.72222C8.33273 4.72222 8.51273 4.67778 8.68182 4.60556V8.61111C8.68182 8.91667 8.43636 9.16667 8.13636 9.16667C7.83636 9.16667 7.59091 8.91667 7.59091 8.61111V6.11111C7.59091 5.5 7.1 5 6.5 5H5.95455V1.11111C5.95455 0.5 5.46364 0 4.86364 0H1.59091C0.990909 0 0.5 0.5 0.5 1.11111V10H5.95455V5.83333H6.77273V8.61111C6.77273 9.37778 7.38364 10 8.13636 10C8.88909 10 9.5 9.37778 9.5 8.61111V3.33333C9.5 2.95 9.34727 2.6 9.10182 2.35ZM4.86364 3.88889H1.59091V1.11111H4.86364V3.88889ZM8.13636 3.88889C7.83636 3.88889 7.59091 3.63889 7.59091 3.33333C7.59091 3.02778 7.83636 2.77778 8.13636 2.77778C8.43636 2.77778 8.68182 3.02778 8.68182 3.33333C8.68182 3.63889 8.43636 3.88889 8.13636 3.88889Z" fill="white"/>
</svg>
