<svg width="17" height="16" viewBox="0 0 17 16" fill="none" xmlns="http://www.w3.org/2000/svg">
<path d="M14.9001 12.1333L9.16672 7.83333V7.22667C10.2667 6.9 11.0334 5.78 10.7867 4.52667C10.6134 3.65333 9.92005 2.92667 9.04672 2.72667C7.52672 2.38 6.16672 3.53333 6.16672 5H7.50005C7.50005 4.44667 7.94672 4 8.50005 4C9.05338 4 9.50005 4.44667 9.50005 5C9.50005 5.56 9.04005 6.01333 8.48005 6C8.12005 5.99333 7.83338 6.3 7.83338 6.66V7.83333L2.10005 12.1333C1.58672 12.52 1.86005 13.3333 2.50005 13.3333H8.50005H14.5001C15.1401 13.3333 15.4134 12.52 14.9001 12.1333ZM4.50005 12L8.50005 9L12.5001 12H4.50005Z" fill="white"/>
</svg>
