<svg width="current" height="current" viewBox="0 0 10 10" fill="none" xmlns="http://www.w3.org/2000/svg">
<path d="M7.5 8.61H1.5V2.5H5V1.5H1.5C0.95 1.5 0.5 1.95 0.5 2.5V8.5C0.5 9.05 0.95 9.5 1.5 9.5H7.5C8.05 9.5 8.5 9.05 8.5 8.5V5H7.5V8.61Z" fill="current"/>
<path d="M8.5 0H7.5V1.5H6C6.005 1.505 6 2.5 6 2.5H7.5V3.995C7.505 4 8.5 3.995 8.5 3.995V2.5H10V1.5H8.5V0Z" fill="current"/>
<path d="M6.5 3.5H2.5V4.5H6.5V3.5Z" fill="current"/>
<path d="M2.5 5V6H6.5V5H5H2.5Z" fill="current"/>
<path d="M6.5 6.5H2.5V7.5H6.5V6.5Z" fill="current"/>
</svg>
