<svg width="20" height="16" viewBox="0 0 20 16" fill="none" xmlns="http://www.w3.org/2000/svg">
<path d="M15.7143 5.71429C15.8762 5.71429 16.0381 5.72381 16.1905 5.74286V1.78095C16.1905 0.8 15.3905 0 14.4095 0H1.78095C0.8 0 0 0.8 0 1.78095V11.5524C0 12.5333 0.8 13.3333 1.78095 13.3333H11.0476C10.6857 12.619 10.4762 11.8095 10.4762 10.9524C10.4762 8.05714 12.819 5.71429 15.7143 5.71429ZM8 7.61905L1.90476 3.99048V1.90476H2.12381L8.00952 5.40952L14.0381 1.90476H14.2857V3.9619L8 7.61905Z" fill="#A7A7A7"/>
<path d="M16.1904 7.61902L14.8475 8.96188L16.3523 10.4762H12.3809V12.3809H16.3523L14.8475 13.8952L16.1904 15.2381L19.9999 11.4285L16.1904 7.61902Z" fill="#A7A7A7"/>
</svg>
