<svg width="current" height="current" viewBox="0 0 17 17" fill="none" xmlns="http://www.w3.org/2000/svg">
<path d="M14.5 6.16669C13.5334 6.16669 12.9934 7.12669 13.2134 7.84002L10.8467 10.2134C10.6467 10.1534 10.3534 10.1534 10.1534 10.2134L8.45335 8.51335C8.68002 7.80002 8.14002 6.83335 7.16669 6.83335C6.20002 6.83335 5.65335 7.79335 5.88002 8.51335L2.84002 11.5467C2.12669 11.3267 1.16669 11.8667 1.16669 12.8334C1.16669 13.5667 1.76669 14.1667 2.50002 14.1667C3.46669 14.1667 4.00669 13.2067 3.78669 12.4934L6.82002 9.45335C7.02002 9.51335 7.31335 9.51335 7.51335 9.45335L9.21335 11.1534C8.98669 11.8667 9.52669 12.8334 10.5 12.8334C11.4667 12.8334 12.0134 11.8734 11.7867 11.1534L14.16 8.78669C14.8734 9.00669 15.8334 8.46669 15.8334 7.50002C15.8334 6.76669 15.2334 6.16669 14.5 6.16669Z" fill="current"/>
<path d="M10.5 6.83334L11.1267 5.45334L12.5 4.83334L11.1267 4.21334L10.5 2.83334L9.88667 4.21334L8.5 4.83334L9.88667 5.45334L10.5 6.83334Z" fill="#404040"/>
<path d="M2.83335 8.16668L3.16669 6.83334L4.50002 6.50001L3.16669 6.16668L2.83335 4.83334L2.50002 6.16668L1.16669 6.50001L2.50002 6.83334L2.83335 8.16668Z" fill="#404040"/>
</svg>
